<svg width="55" height="55" viewBox="0 0 55 55" fill="none" xmlns="http://www.w3.org/2000/svg">
<circle cx="27.5" cy="27.5" r="27.5" fill="#414A5C"/>
<path d="M25.3132 17.5H26.8334V19.8333H26.0202L22.5202 22.1666H19.8334C19.5114 22.1666 19.2501 22.428 19.2501 22.75V35.5833C19.2501 35.9053 19.5114 36.1666 19.8334 36.1666H36.1667C36.4887 36.1666 36.7501 35.9053 36.7501 35.5833V25.6666H39.0834V35.5833C39.0834 37.1945 37.7779 38.5 36.1667 38.5H19.8334C18.2222 38.5 16.9167 37.1945 16.9167 35.5833V22.75C16.9167 21.1388 18.2222 19.8333 19.8334 19.8333H21.8132L25.3132 17.5ZM28.0001 26.25C26.7109 26.25 25.6667 27.2941 25.6667 28.5833C25.6667 29.8725 26.7109 30.9166 28.0001 30.9166C29.2892 30.9166 30.3334 29.8725 30.3334 28.5833C30.3334 27.2941 29.2892 26.25 28.0001 26.25ZM23.3334 28.5833C23.3334 26.0061 25.4229 23.9166 28.0001 23.9166C30.5772 23.9166 32.6667 26.0061 32.6667 28.5833C32.6667 31.1605 30.5772 33.25 28.0001 33.25C25.4229 33.25 23.3334 31.1605 23.3334 28.5833ZM33.8334 16.3333C33.8334 18.2665 32.2666 19.8333 30.3334 19.8333V21C32.2666 21 33.8334 22.5668 33.8334 24.5H35.0001C35.0001 22.5668 36.5669 21 38.5001 21V19.8333C36.5669 19.8333 35.0001 18.2665 35.0001 16.3333H33.8334Z" fill="white"/>
</svg>
