<svg width="55" height="55" viewBox="0 0 55 55" fill="none" xmlns="http://www.w3.org/2000/svg">
<circle cx="27.5" cy="27.5" r="27.5" fill="#414A5C"/>
<path fill-rule="evenodd" clip-rule="evenodd" d="M22.3381 19.7832C21.7523 19.1974 20.8026 19.1974 20.2168 19.7832C19.631 20.369 19.631 21.3187 20.2168 21.9045L25.3123 27L20.2168 32.0955C19.631 32.6813 19.631 33.631 20.2168 34.2168C20.8026 34.8026 21.7523 34.8026 22.3381 34.2168L27.4336 29.1213L32.5289 34.2167C33.1147 34.8025 34.0645 34.8025 34.6503 34.2167C35.2361 33.6309 35.2361 32.6812 34.6503 32.0954L29.5549 27L34.6503 21.9046C35.2361 21.3188 35.2361 20.3691 34.6503 19.7833C34.0645 19.1975 33.1147 19.1975 32.5289 19.7833L27.4336 24.8787L22.3381 19.7832Z" fill="white"/>
</svg>
